<svg width="24" height="27" viewBox="0 0 24 27" fill="none" xmlns="http://www.w3.org/2000/svg">
<path d="M21.3333 24.3333H2.66667V9.66668H21.3333M17.3333 0.333344V3.00001H6.66667V0.333344H4V3.00001H2.66667C1.18667 3.00001 0 4.18668 0 5.66668V24.3333C0 25.0406 0.280951 25.7189 0.781048 26.219C1.28115 26.7191 1.95942 27 2.66667 27H21.3333C22.0406 27 22.7189 26.7191 23.219 26.219C23.719 25.7189 24 25.0406 24 24.3333V5.66668C24 4.95943 23.719 4.28116 23.219 3.78106C22.7189 3.28096 22.0406 3.00001 21.3333 3.00001H20V0.333344M18.6667 15H12V21.6667H18.6667V15Z" fill="#888888"/>
</svg>
